<svg xmlns="http://www.w3.org/2000/svg" width="500" height="700" viewBox="0 0 500 700" role="img" aria-label="CODE EDITOR">
  <rect width="500" height="700" fill="#0b0b0b"/>
  <g opacity="0.5"><line x1="62.5" y1="0" x2="62.5" y2="700" stroke="#2b2b2b" stroke-width="1"/><line x1="125" y1="0" x2="125" y2="700" stroke="#2b2b2b" stroke-width="1"/><line x1="187.5" y1="0" x2="187.5" y2="700" stroke="#2b2b2b" stroke-width="1"/><line x1="250" y1="0" x2="250" y2="700" stroke="#2b2b2b" stroke-width="1"/><line x1="312.5" y1="0" x2="312.5" y2="700" stroke="#2b2b2b" stroke-width="1"/><line x1="375" y1="0" x2="375" y2="700" stroke="#2b2b2b" stroke-width="1"/><line x1="437.5" y1="0" x2="437.5" y2="700" stroke="#2b2b2b" stroke-width="1"/><line x1="0" y1="58.333333333333336" x2="500" y2="58.333333333333336" stroke="#2b2b2b" stroke-width="1"/><line x1="0" y1="116.66666666666667" x2="500" y2="116.66666666666667" stroke="#2b2b2b" stroke-width="1"/><line x1="0" y1="175" x2="500" y2="175" stroke="#2b2b2b" stroke-width="1"/><line x1="0" y1="233.33333333333334" x2="500" y2="233.33333333333334" stroke="#2b2b2b" stroke-width="1"/><line x1="0" y1="291.6666666666667" x2="500" y2="291.6666666666667" stroke="#2b2b2b" stroke-width="1"/><line x1="0" y1="350" x2="500" y2="350" stroke="#2b2b2b" stroke-width="1"/><line x1="0" y1="408.33333333333337" x2="500" y2="408.33333333333337" stroke="#2b2b2b" stroke-width="1"/><line x1="0" y1="466.6666666666667" x2="500" y2="466.6666666666667" stroke="#2b2b2b" stroke-width="1"/><line x1="0" y1="525" x2="500" y2="525" stroke="#2b2b2b" stroke-width="1"/><line x1="0" y1="583.3333333333334" x2="500" y2="583.3333333333334" stroke="#2b2b2b" stroke-width="1"/><line x1="0" y1="641.6666666666667" x2="500" y2="641.6666666666667" stroke="#2b2b2b" stroke-width="1"/></g>
  <circle cx="250" cy="329" r="70" fill="none" stroke="#f5f5f5" stroke-width="2" opacity="0.85"/>
  <text x="250" y="455" text-anchor="middle" font-family="Inter, sans-serif" font-size="19" font-weight="700" fill="#f5f5f5" letter-spacing="1">CODE EDITOR</text>
  
  <rect x="0.5" y="0.5" width="499" height="699" fill="none" stroke="#2b2b2b" stroke-width="1"/>
</svg>