<svg xmlns="http://www.w3.org/2000/svg" width="900" height="600" viewBox="0 0 900 600" role="img" aria-label="ANALYTICS HUB">
  <rect width="900" height="600" fill="#0b0b0b"/>
  <g opacity="0.5"><line x1="60" y1="0" x2="60" y2="600" stroke="#2b2b2b" stroke-width="1"/><line x1="120" y1="0" x2="120" y2="600" stroke="#2b2b2b" stroke-width="1"/><line x1="180" y1="0" x2="180" y2="600" stroke="#2b2b2b" stroke-width="1"/><line x1="240" y1="0" x2="240" y2="600" stroke="#2b2b2b" stroke-width="1"/><line x1="300" y1="0" x2="300" y2="600" stroke="#2b2b2b" stroke-width="1"/><line x1="360" y1="0" x2="360" y2="600" stroke="#2b2b2b" stroke-width="1"/><line x1="420" y1="0" x2="420" y2="600" stroke="#2b2b2b" stroke-width="1"/><line x1="480" y1="0" x2="480" y2="600" stroke="#2b2b2b" stroke-width="1"/><line x1="540" y1="0" x2="540" y2="600" stroke="#2b2b2b" stroke-width="1"/><line x1="600" y1="0" x2="600" y2="600" stroke="#2b2b2b" stroke-width="1"/><line x1="660" y1="0" x2="660" y2="600" stroke="#2b2b2b" stroke-width="1"/><line x1="720" y1="0" x2="720" y2="600" stroke="#2b2b2b" stroke-width="1"/><line x1="780" y1="0" x2="780" y2="600" stroke="#2b2b2b" stroke-width="1"/><line x1="840" y1="0" x2="840" y2="600" stroke="#2b2b2b" stroke-width="1"/><line x1="0" y1="60" x2="900" y2="60" stroke="#2b2b2b" stroke-width="1"/><line x1="0" y1="120" x2="900" y2="120" stroke="#2b2b2b" stroke-width="1"/><line x1="0" y1="180" x2="900" y2="180" stroke="#2b2b2b" stroke-width="1"/><line x1="0" y1="240" x2="900" y2="240" stroke="#2b2b2b" stroke-width="1"/><line x1="0" y1="300" x2="900" y2="300" stroke="#2b2b2b" stroke-width="1"/><line x1="0" y1="360" x2="900" y2="360" stroke="#2b2b2b" stroke-width="1"/><line x1="0" y1="420" x2="900" y2="420" stroke="#2b2b2b" stroke-width="1"/><line x1="0" y1="480" x2="900" y2="480" stroke="#2b2b2b" stroke-width="1"/><line x1="0" y1="540" x2="900" y2="540" stroke="#2b2b2b" stroke-width="1"/></g>
  <circle cx="450" cy="274.8" r="84.00000000000001" fill="none" stroke="#f5f5f5" stroke-width="2" opacity="0.85"/>
  <text x="450" y="426" text-anchor="middle" font-family="Inter, sans-serif" font-size="35" font-weight="700" fill="#f5f5f5" letter-spacing="1">ANALYTICS HUB</text>
  <text x="450" y="471" text-anchor="middle" font-family="Inter, sans-serif" font-size="23" fill="#8a8a8a">Data Analytics Dashboard</text>
  <rect x="0.5" y="0.5" width="899" height="599" fill="none" stroke="#2b2b2b" stroke-width="1"/>
</svg>