<svg xmlns="http://www.w3.org/2000/svg" width="700" height="620" viewBox="0 0 700 620" role="img" aria-label="WHY WORK WITH ME">
  <rect width="700" height="620" fill="#0b0b0b"/>
  <g opacity="0.5"><line x1="58.333333333333336" y1="0" x2="58.333333333333336" y2="620" stroke="#2b2b2b" stroke-width="1"/><line x1="116.66666666666667" y1="0" x2="116.66666666666667" y2="620" stroke="#2b2b2b" stroke-width="1"/><line x1="175" y1="0" x2="175" y2="620" stroke="#2b2b2b" stroke-width="1"/><line x1="233.33333333333334" y1="0" x2="233.33333333333334" y2="620" stroke="#2b2b2b" stroke-width="1"/><line x1="291.6666666666667" y1="0" x2="291.6666666666667" y2="620" stroke="#2b2b2b" stroke-width="1"/><line x1="350" y1="0" x2="350" y2="620" stroke="#2b2b2b" stroke-width="1"/><line x1="408.33333333333337" y1="0" x2="408.33333333333337" y2="620" stroke="#2b2b2b" stroke-width="1"/><line x1="466.6666666666667" y1="0" x2="466.6666666666667" y2="620" stroke="#2b2b2b" stroke-width="1"/><line x1="525" y1="0" x2="525" y2="620" stroke="#2b2b2b" stroke-width="1"/><line x1="583.3333333333334" y1="0" x2="583.3333333333334" y2="620" stroke="#2b2b2b" stroke-width="1"/><line x1="641.6666666666667" y1="0" x2="641.6666666666667" y2="620" stroke="#2b2b2b" stroke-width="1"/><line x1="0" y1="62" x2="700" y2="62" stroke="#2b2b2b" stroke-width="1"/><line x1="0" y1="124" x2="700" y2="124" stroke="#2b2b2b" stroke-width="1"/><line x1="0" y1="186" x2="700" y2="186" stroke="#2b2b2b" stroke-width="1"/><line x1="0" y1="248" x2="700" y2="248" stroke="#2b2b2b" stroke-width="1"/><line x1="0" y1="310" x2="700" y2="310" stroke="#2b2b2b" stroke-width="1"/><line x1="0" y1="372" x2="700" y2="372" stroke="#2b2b2b" stroke-width="1"/><line x1="0" y1="434" x2="700" y2="434" stroke="#2b2b2b" stroke-width="1"/><line x1="0" y1="496" x2="700" y2="496" stroke="#2b2b2b" stroke-width="1"/><line x1="0" y1="558" x2="700" y2="558" stroke="#2b2b2b" stroke-width="1"/></g>
  <circle cx="350" cy="283.96" r="86.80000000000001" fill="none" stroke="#f5f5f5" stroke-width="2" opacity="0.85"/>
  <text x="350" y="440.20000000000005" text-anchor="middle" font-family="Inter, sans-serif" font-size="27" font-weight="700" fill="#f5f5f5" letter-spacing="1">WHY WORK WITH ME</text>
  
  <rect x="0.5" y="0.5" width="699" height="619" fill="none" stroke="#2b2b2b" stroke-width="1"/>
</svg>